<svg xmlns="http://www.w3.org/2000/svg" viewBox="0 0 359.14 408.95"><defs><style>.a{fill:#d1515a;}</style></defs><path class="a" d="M281.76,409H77.36a4.11,4.11,0,0,0-1-.55C58.66,404.69,47.76,393,46.09,375.1c-2.13-22.78-3.84-45.59-5.74-68.39q-3.43-41.16-6.88-82.3-3.06-36.78-6.1-73.56c-.84-10.17-1.64-20.35-2.48-30.74H334a6.94,6.94,0,0,1,.18,1.31q-4.34,52.68-8.68,105.38-6,72-11.88,143.94c-.85,10.5-3.41,20.11-11.21,27.77C296.59,404.22,289.44,407.05,281.76,409ZM131.69,349.69c-.76-12.63-1.32-22.32-1.92-32q-3.06-49.37-6.14-98.72-2-31.85-4-63.69a11.43,11.43,0,0,0-6.29-10,11.86,11.86,0,0,0-17.51,11.05c.28,10.36,1.14,20.7,1.79,31q3,48.57,6.07,97.13c1.35,21.63,2.65,43.26,4,64.89.33,5.26,3,9,8,10.86C124.34,363.39,132,356.85,131.69,349.69ZM263.37,157c.27-7-4.19-12.7-11.22-13.08a12.2,12.2,0,0,0-12.69,11.67c-1.39,21.9-2.7,43.81-4.06,65.72q-2.62,41.82-5.27,83.64c-.9,14.47-1.9,28.94-2.58,43.42A11.78,11.78,0,0,0,239.15,361c6.57.15,11.74-4.74,12.25-11.65.33-4.38.56-8.76.83-13.15q2.53-41.22,5.08-82.45C259.29,221.9,261.3,190,263.37,157Zm-71.84,95.45q0-46.69,0-93.41c0-9.57-4.41-15.15-12-15.14s-12,5.56-12,15.14V345.86a37.85,37.85,0,0,0,.07,4c.56,5.08,3.15,8.69,8,10.44,8.16,2.91,15.84-3.06,15.86-12.43Q191.58,300.16,191.53,252.45Z" transform="translate(0 0)"/><path class="a" d="M96.07,48.05c0-5.57-.51-10.67.09-15.63,2.27-18.93,16.4-32,35.52-32.17q47.9-.48,95.8,0c20.52.22,35.37,15.61,35.89,36.16.1,3.7,0,7.41,0,11.63h4.49c22.08,0,44.17,0,66.26,0,12,0,21.26,6.93,24.16,17.67a23.74,23.74,0,0,1-17.95,29.5,35.77,35.77,0,0,1-7.53.68Q179.54,96,26.25,96C14,96,4.89,90.16,1.46,80.23-4.16,64,7,48.24,24.61,48.1c22.09-.18,44.18-.05,66.27-.05Zm23.6-.21H239.43c0-3.89.07-7.58,0-11.27-.17-7.5-5.06-12.32-12.65-12.45-4.38-.08-8.77,0-13.16,0q-40.28,0-80.55,0c-8.56,0-13.3,4.79-13.38,13.33C119.65,40.76,119.67,44.08,119.67,47.84Z" transform="translate(0 0)"/></svg>