<?xml version="1.0" encoding="utf-8"?>
<!-- Generator: Adobe Illustrator 25.1.0, SVG Export Plug-In . SVG Version: 6.00 Build 0)  -->
<svg version="1.1" id="Calque_1" xmlns="http://www.w3.org/2000/svg" xmlns:xlink="http://www.w3.org/1999/xlink" x="0px" y="0px"
	 viewBox="0 0 317.7 317.5" style="enable-background:new 0 0 317.7 317.5;" xml:space="preserve">
<style type="text/css">
	.st0{display:none;fill:#091F43;}
	.st1{fill:#D1515A;}
</style>
<path class="st0" d="M313.2,394.8c-9.3,16.9-21.4,32-35.4,44.9c-24.5,22.6-55.4,38.1-89.6,44c-0.7,0.2-1.6,0.2-2.2,0.5
	c-8.7,1.6-17.8,2.2-27.1,2.2c-4.9,0-9.8-0.1-14.8-0.6c-1.9-0.1-3.6-0.4-5.6-0.6c-37.6-4.4-71.6-20.8-98.3-45
	c-14.3-13-26.4-28.4-35.8-45.5c0-0.3,0.1-0.7,0.1-1c2.2-11.3,5.1-22.5,8.8-33.2c0.9-2.7,1.9-5.3,2.9-7.9c7.7-19.5,17.8-37,29.9-52
	c9.6,8,20.1,15.1,31.3,20.9c9.8,5.2,20.2,9.5,31,12.7c9.7,2.9,19.8,5,30.1,6.2c1.9,0.2,3.6,0.5,5.6,0.6c5,0.5,10,0.6,14.8,0.6
	c9.2,0,18.3-0.6,27.1-2.2c0.6-0.2,1.5-0.2,2.2-0.5c11.3-1.9,22.1-4.9,32.6-8.8c10.7-4,20.9-9.1,30.5-15c7-4.3,13.7-9.2,20-14.4
	c11.9,14.9,21.9,32.2,29.5,51.6c1.1,2.8,2.2,5.6,3.2,8.5c3.8,10.6,6.7,21.8,8.8,33C312.9,393.9,313,394.3,313.2,394.8z"/>
<g>
	<g>
		<path class="st1" d="M313.6,123.2c-2.2-9.3-5-18.3-9-26.9c-20.9-48.7-65.6-85-119.5-93.9c-0.5-0.2-1.3-0.2-2-0.4
			c-8-1.2-16.1-2-24.4-2c-4.5,0-9,0.2-13.4,0.5c-1.8,0.2-3.3,0.2-5,0.5C82.8,7.6,34.7,45.1,12.8,96.1C9.1,104.6,6.2,113.7,4,123
			c-2.7,11.5-4,23.5-4,35.7c0,13,1.5,25.6,4.7,37.9c2.3,9.3,5.5,18.3,9.3,26.9c9,20,21.9,37.9,37.9,52.4
			c24.1,21.9,54.7,36.7,88.7,40.6c1.8,0.2,3.3,0.4,5,0.5c4.5,0.4,9,0.5,13.4,0.5c8.3,0,16.5-0.5,24.4-2c0.5-0.2,1.3-0.2,2-0.4
			c30.9-5.3,58.7-19.3,80.8-39.6c15.9-14.6,28.9-32.4,37.9-52.4c3.8-8.5,7-17.6,9.1-26.9c3-12,4.5-24.8,4.5-37.9
			C317.7,146.7,316.3,134.9,313.6,123.2z M278.7,96.5h-44.2c-5.8-22.9-15-44.4-26.9-63.5C238,44.8,263.3,67.5,278.7,96.5z
			 M160.4,23.8c2.2,0,4.5,0.2,6.6,0.2c17.5,19,31.1,43.9,39.2,72.2h-70.5c-2.3-5.5-5.8-10.1-10.3-13.6
			C133.8,59.9,145.9,40,160.4,23.8z M122.8,28.7c-9.5,14.1-17.3,29.9-23.3,46.6c-12.6,1.5-22.9,9.7-27.8,21H38.8
			C56.5,63.6,86.6,38.8,122.8,28.7z M23.8,159.1c0-12.4,1.8-24.3,4.8-35.7h43.2c3,6.8,8,12.6,14.1,16.3c-0.5,6.5-0.8,12.8-0.8,19.4
			c0,12.8,1,25.4,2.7,37.9h-59C25.6,184.7,23.8,172.1,23.8,159.1z M79.3,268.2c-16.1-11.6-29.6-26.9-39-44.4h53.5
			c3.5,13.6,8.3,26.6,14.1,39c4.3,9.3,9.3,18.3,15,26.6C106.9,284.8,92.4,277.7,79.3,268.2z M190.8,260.4
			c-6.6,12.4-14.6,23.6-23.5,33.6c-2.2,0.2-4.5,0.2-6.6,0.2c-9.1-10.1-17.3-21.8-24.1-34.6c-6-11.1-10.8-23.1-14.8-35.9h74.9
			c1.5,3.5,3.5,6.8,6,9.5C199.3,242.8,195.2,251.9,190.8,260.4z M196.6,196.7h-81.1c-2-12.3-3.1-24.8-3.1-37.9
			c0-5.3,0.2-10.5,0.5-15.8c10.5-2.7,19-10.3,23.1-20h76.5c1.8,11.5,2.7,23.5,2.7,35.7c0,6.6-0.2,13.2-0.8,19.6
			C206.4,182.2,200.1,188.6,196.6,196.7z M238.5,268.2c-9.5,7-20,12.6-31.1,16.9c4.3-6.8,8.1-13.8,11.6-21c3-6.2,5.6-12.6,8.1-19.3
			c0.5,0,1,0,1.5,0c14.3,0,26.8-8.8,32.1-21.3h16.9C268,241.2,254.4,256.4,238.5,268.2z M288.6,196.7h-27.9
			c-3.7-8.5-10.5-15.3-19.3-18.8c0.4-6.2,0.8-12.6,0.8-19c0-12-0.8-24.1-2.5-35.7h49.5c3.1,11.5,4.8,23.3,4.8,35.7
			C294,172.1,292,184.7,288.6,196.7z"/>
	</g>
</g>
</svg>
