<svg xmlns="http://www.w3.org/2000/svg" viewBox="0 0 500 501.54"><defs><style>.a{fill:#fff;}</style></defs><path class="a" d="M362.23,138c-20.46,14.27-39.83,27.76-59.18,41.28q-69.93,48.84-139.79,97.8c-3.72,2.62-6.47,2.5-10.46.57Q83.11,244,13.21,210.79C6.08,207.4-.23,203.68,0,194.6s6.63-12.44,14.1-15.3Q125.35,136.67,236.5,93.76q68.1-26.2,136.21-52.36Q425.81,21,478.9.58c6.28-2.42,11.94-1.68,16.68,3.05s5.48,10.49,3.11,16.69q-35.26,92.63-70.55,185.24-40.74,107-81.46,214c-9,23.72-18,47.45-27.18,71.11-3.61,9.3-13.55,12.9-21.58,7.72a19.58,19.58,0,0,1-6.45-7.69Q262.65,431.41,234.16,372c-4-8.21-7.61-16.6-12-24.57-2.16-3.91-1.19-6.45,1-9.62q35.1-50,70-100.14L361,140.68C361.27,140.29,361.4,139.82,362.23,138Z" transform="translate(0 0.77)"/></svg>