<svg xmlns="http://www.w3.org/2000/svg" viewBox="0 0 499.16 473.1"><defs><style>.a{fill:#091f43;}</style></defs><path class="a" d="M174.18,0C184.53.69,192.56,5,199,12.81c13,15.68,29.8,24,50.23,24.18,19.81.13,36.35-7.59,49.52-22.38s23.59-17.34,42-10.17a244.45,244.45,0,0,1,66.84,39.37c11.68,9.61,15.15,21.92,10.23,36.27-13.73,40.07,9.15,79.5,50.58,87.18,15.43,2.86,24.1,11.65,27,26.88a226.75,226.75,0,0,1-.39,84.7c-2.57,13.58-12.81,23.28-26.76,25.41-42.9,6.55-67.13,47.87-51.91,88.54,5.47,14.61,2.1,27.35-9.91,37.2a249.6,249.6,0,0,1-64,38.18c-14,5.75-27.65,2.17-37.22-9.71-28.72-35.64-77.4-35-105.16,1.31-9.62,12.6-23.06,16.44-37.82,10.79a249.82,249.82,0,0,1-68.56-39.47c-13-10.56-16.4-23.33-10-38.8,12.34-29.69,2.84-62.4-23.25-79.9a62.89,62.89,0,0,0-26.91-10.31c-19-2.58-27.78-11-30.79-30.08a229.3,229.3,0,0,1,2-81.64c2.9-14.38,13-23.2,28-25.21,43.26-5.8,68.18-46.84,53.41-88-5.43-15.13-1.69-27.91,11-37.79A245.13,245.13,0,0,1,162.2,3C166,1.6,170.18,1,174.18,0ZM332.86,236.57c.09-45.39-37.25-82.93-82.55-83-46.24-.09-83.79,37-83.82,82.8a83.23,83.23,0,0,0,83.07,83.56C295.49,320,332.78,282.7,332.86,236.57Z"/></svg>