<?xml version="1.0" encoding="utf-8"?>
<!-- Generator: Adobe Illustrator 25.1.0, SVG Export Plug-In . SVG Version: 6.00 Build 0)  -->
<svg version="1.1" id="Calque_1" xmlns="http://www.w3.org/2000/svg" xmlns:xlink="http://www.w3.org/1999/xlink" x="0px" y="0px"
	 viewBox="0 0 500 500" style="enable-background:new 0 0 500 500;" xml:space="preserve">
<style type="text/css">
	.st0{display:none;fill:#091F43;}
	.st1{fill:#D1515A;}
	.st2{opacity:0.56;fill:#091F43;}
	.st3{fill:#091F43;}
</style>
<path class="st0" d="M404.4,398.9c-9.3,16.9-21.4,32-35.4,44.9c-24.5,22.6-55.4,38.1-89.6,44c-0.7,0.2-1.6,0.2-2.2,0.5
	c-8.7,1.6-17.8,2.2-27.1,2.2c-4.9,0-9.8-0.1-14.8-0.6c-1.9-0.1-3.6-0.4-5.6-0.6c-37.6-4.4-71.6-20.8-98.3-45
	c-14.3-13-26.4-28.4-35.8-45.5c0-0.3,0.1-0.7,0.1-1c2.2-11.3,5.1-22.5,8.8-33.2c0.9-2.7,1.9-5.3,2.9-7.9c7.7-19.5,17.8-37,29.9-52
	c9.6,8,20.1,15.1,31.3,20.9c9.8,5.2,20.2,9.5,31,12.7c9.7,2.9,19.8,5,30.1,6.2c1.9,0.2,3.6,0.5,5.6,0.6c5,0.5,10,0.6,14.8,0.6
	c9.2,0,18.3-0.6,27.1-2.2c0.6-0.2,1.5-0.2,2.2-0.5c11.3-1.9,22.1-4.9,32.6-8.8c10.7-4,20.9-9.1,30.5-15c7-4.3,13.7-9.2,20-14.4
	c11.9,14.9,21.9,32.2,29.5,51.6c1.1,2.8,2.2,5.6,3.2,8.5c3.8,10.6,6.7,21.8,8.8,33C404.1,398,404.2,398.4,404.4,398.9z"/>
<g>
	<g>
		<g>
			<path class="st1" d="M404.8,127.3c-2.2-9.3-5-18.3-9-26.9c-20.9-48.7-65.6-85-119.5-93.9c-0.5-0.2-1.3-0.2-2-0.4
				c-8-1.2-16.1-2-24.4-2c-4.5,0-9,0.2-13.4,0.5c-1.8,0.2-3.3,0.2-5,0.5C174,11.7,125.9,49.2,104,100.2c-3.7,8.5-6.6,17.6-8.8,26.9
				c-2.7,11.5-4,23.5-4,35.7c0,13,1.5,25.6,4.7,37.9c2.3,9.3,5.5,18.3,9.3,26.9c9,20,21.9,37.9,37.9,52.4
				c24.1,21.9,54.7,36.7,88.7,40.6c1.8,0.2,3.3,0.4,5,0.5c4.5,0.4,9,0.5,13.4,0.5c8.3,0,16.5-0.5,24.4-2c0.5-0.2,1.3-0.2,2-0.4
				c30.9-5.3,58.7-19.3,80.8-39.6c15.9-14.6,28.9-32.4,37.9-52.4c3.8-8.5,7-17.6,9.1-26.9c3-12,4.5-24.8,4.5-37.9
				C408.9,150.8,407.5,139,404.8,127.3z M369.9,100.6h-44.2c-5.8-22.9-15-44.4-26.9-63.5C329.2,48.9,354.5,71.6,369.9,100.6z
				 M251.6,27.9c2.2,0,4.5,0.2,6.6,0.2c17.5,19,31.1,43.9,39.2,72.2h-70.5c-2.3-5.5-5.8-10.1-10.3-13.6
				C225,64,237.1,44.1,251.6,27.9z M214,32.8c-9.5,14.1-17.3,29.9-23.3,46.6c-12.6,1.5-22.9,9.7-27.8,21H130
				C147.7,67.7,177.8,42.9,214,32.8z M115,163.2c0-12.4,1.8-24.3,4.8-35.7h43.2c3,6.8,8,12.6,14.1,16.3c-0.5,6.5-0.8,12.8-0.8,19.4
				c0,12.8,1,25.4,2.7,37.9h-59C116.8,188.8,115,176.2,115,163.2z M170.5,272.3c-16.1-11.6-29.6-26.9-39-44.4H185
				c3.5,13.6,8.3,26.6,14.1,39c4.3,9.3,9.3,18.3,15,26.6C198.1,288.9,183.6,281.8,170.5,272.3z M282,264.5
				c-6.6,12.4-14.6,23.6-23.5,33.6c-2.2,0.2-4.5,0.2-6.6,0.2c-9.1-10.1-17.3-21.8-24.1-34.6c-6-11.1-10.8-23.1-14.8-35.9h74.9
				c1.5,3.5,3.5,6.8,6,9.5C290.5,246.9,286.4,256,282,264.5z M287.8,200.8h-81.1c-2-12.3-3.1-24.8-3.1-37.9c0-5.3,0.2-10.5,0.5-15.8
				c10.5-2.7,19-10.3,23.1-20h76.5c1.8,11.5,2.7,23.5,2.7,35.7c0,6.6-0.2,13.2-0.8,19.6C297.6,186.3,291.3,192.7,287.8,200.8z
				 M329.7,272.3c-9.5,7-20,12.6-31.1,16.9c4.3-6.8,8.1-13.8,11.6-21c3-6.2,5.6-12.6,8.1-19.3c0.5,0,1,0,1.5,0
				c14.3,0,26.8-8.8,32.1-21.3h16.9C359.2,245.3,345.6,260.5,329.7,272.3z M379.8,200.8h-27.9c-3.7-8.5-10.5-15.3-19.3-18.8
				c0.4-6.2,0.8-12.6,0.8-19c0-12-0.8-24.1-2.5-35.7h49.5c3.1,11.5,4.8,23.3,4.8,35.7C385.2,176.2,383.2,188.8,379.8,200.8z"/>
		</g>
	</g>
	<path class="st2" d="M445.2,462.7C384.1,484.3,318.4,496,250,496s-134.1-11.7-195.2-33.2c5.2-61.7,39.1-115.2,88.2-147.3
		c30.8,20.1,67.5,31.8,107.1,31.8s76.3-11.7,107.1-31.8C406.2,347.5,440,401.1,445.2,462.7z"/>
	<path class="st3" d="M357.1,315.4c-30.8,20.1-67.5,31.8-107.1,31.8s-76.3-11.7-107.1-31.8C93.8,347.5,60,401.1,54.8,462.7
		C115.9,484.3,181.6,496,250,496s134.1-11.7,195.2-33.2C440,401.1,406.2,347.5,357.1,315.4z"/>
</g>
</svg>
